<svg viewBox="0 0 1060 632" xmlns="http://www.w3.org/2000/svg" font-family="system-ui,Segoe UI,sans-serif">
<rect width="1060" height="632" rx="16" fill="#0b0f17"/>
<rect x="1" y="1" width="1058" height="630" rx="15" fill="none" stroke="#26324a"/>

<text x="40" y="44" font-size="30" font-weight="800" fill="#e6edf6">USER AS CODE</text>
<text x="315" y="44" font-size="16" fill="#8ea0b8">Executable Memory for Personalized Agents</text>
<rect x="884" y="26" width="150" height="26" rx="13" fill="#131a26" stroke="#3a2c5e"/>
<text x="959" y="43" text-anchor="middle" font-family="ui-monospace,monospace" font-size="12" fill="#b98bff">arXiv:2606.16707</text>

<!-- Body: the user, as code -->
<clipPath id="body"><circle cx="152" cy="122" r="30"/><rect x="139" y="148" width="26" height="28" rx="7"/><path d="
M120,170 C132,150 172,150 184,170 L178,305 C178,316 126,316 126,305 Z
M122,172 C98,180 92,242 88,312 C88,324 106,324 106,314 C110,250 118,198 130,186 Z
M182,172 C206,180 212,242 216,312 C216,324 198,324 198,314 C194,250 186,198 174,186 Z
M128,308 C124,360 122,420 120,476 C120,489 142,489 142,476 C146,420 152,360 154,312 Z
M176,308 C180,360 182,420 184,476 C184,489 162,489 162,476 C158,420 152,360 150,312 Z"/></clipPath>
<circle cx="152" cy="122" r="30" fill="#0f1520"/>
<rect x="139" y="148" width="26" height="28" rx="7" fill="#0f1520"/>
<path d="
M120,170 C132,150 172,150 184,170 L178,305 C178,316 126,316 126,305 Z
M122,172 C98,180 92,242 88,312 C88,324 106,324 106,314 C110,250 118,198 130,186 Z
M182,172 C206,180 212,242 216,312 C216,324 198,324 198,314 C194,250 186,198 174,186 Z
M128,308 C124,360 122,420 120,476 C120,489 142,489 142,476 C146,420 152,360 154,312 Z
M176,308 C180,360 182,420 184,476 C184,489 162,489 162,476 C158,420 152,360 150,312 Z" fill="#0f1520"/>
<g clip-path="url(#body)"><text x="82" y="96.0" font-family="ui-monospace,monospace" font-size="6.6" fill="#5eb0ff" fill-opacity="0.5" xml:space="preserve">class UserProfile:</text><text x="82" y="104.4" font-family="ui-monospace,monospace" font-size="6.6" fill="#5eb0ff" fill-opacity="0.5" xml:space="preserve">  name = 'Alex'</text><text x="82" y="112.8" font-family="ui-monospace,monospace" font-size="6.6" fill="#5eb0ff" fill-opacity="0.5" xml:space="preserve">  language = 'English'</text><text x="82" y="121.2" font-family="ui-monospace,monospace" font-size="6.6" fill="#5eb0ff" fill-opacity="0.5" xml:space="preserve">class MedicalInfo:</text><text x="82" y="129.6" font-family="ui-monospace,monospace" font-size="6.6" fill="#5eb0ff" fill-opacity="0.5" xml:space="preserve">  allergies = [</text><text x="82" y="138.0" font-family="ui-monospace,monospace" font-size="6.6" fill="#5eb0ff" fill-opacity="0.5" xml:space="preserve">   Allergy('penicillin',</text><text x="82" y="146.4" font-family="ui-monospace,monospace" font-size="6.6" fill="#5eb0ff" fill-opacity="0.5" xml:space="preserve">    'severe')]</text><text x="82" y="154.8" font-family="ui-monospace,monospace" font-size="6.6" fill="#5eb0ff" fill-opacity="0.5" xml:space="preserve">  def check_drug_conflict(</text><text x="82" y="163.2" font-family="ui-monospace,monospace" font-size="6.6" fill="#5eb0ff" fill-opacity="0.5" xml:space="preserve">     self, meds):</text><text x="82" y="171.6" font-family="ui-monospace,monospace" font-size="6.6" fill="#5eb0ff" fill-opacity="0.5" xml:space="preserve">   return [m for m in meds</text><text x="82" y="180.0" font-family="ui-monospace,monospace" font-size="6.6" fill="#5eb0ff" fill-opacity="0.5" xml:space="preserve">    if m in self.allergies]</text><text x="82" y="188.4" font-family="ui-monospace,monospace" font-size="6.6" fill="#5eb0ff" fill-opacity="0.5" xml:space="preserve">class FoodPreference:</text><text x="82" y="196.8" font-family="ui-monospace,monospace" font-size="6.6" fill="#5eb0ff" fill-opacity="0.5" xml:space="preserve">  diet = 'vegetarian'</text><text x="82" y="205.2" font-family="ui-monospace,monospace" font-size="6.6" fill="#5eb0ff" fill-opacity="0.5" xml:space="preserve">  cuisines = ['Italian',</text><text x="82" y="213.6" font-family="ui-monospace,monospace" font-size="6.6" fill="#5eb0ff" fill-opacity="0.5" xml:space="preserve">   'Mexican']</text><text x="82" y="222.0" font-family="ui-monospace,monospace" font-size="6.6" fill="#5eb0ff" fill-opacity="0.5" xml:space="preserve">class TravelPreference:</text><text x="82" y="230.4" font-family="ui-monospace,monospace" font-size="6.6" fill="#5eb0ff" fill-opacity="0.5" xml:space="preserve">  home_airport = 'YYZ'</text><text x="82" y="238.8" font-family="ui-monospace,monospace" font-size="6.6" fill="#5eb0ff" fill-opacity="0.5" xml:space="preserve">  passport_expiry =</text><text x="82" y="247.2" font-family="ui-monospace,monospace" font-size="6.6" fill="#5eb0ff" fill-opacity="0.5" xml:space="preserve">   date(2027, 8, 15)</text><text x="82" y="255.6" font-family="ui-monospace,monospace" font-size="6.6" fill="#5eb0ff" fill-opacity="0.5" xml:space="preserve">log.append(fact)  # keep</text><text x="82" y="264.0" font-family="ui-monospace,monospace" font-size="6.6" fill="#5eb0ff" fill-opacity="0.5" xml:space="preserve">user = compile(log)</text><text x="82" y="272.4" font-family="ui-monospace,monospace" font-size="6.6" fill="#5eb0ff" fill-opacity="0.5" xml:space="preserve">user.on_change()  # rules</text><text x="82" y="280.8" font-family="ui-monospace,monospace" font-size="6.6" fill="#5eb0ff" fill-opacity="0.5" xml:space="preserve">user.total_spent('coffee')</text><text x="82" y="289.2" font-family="ui-monospace,monospace" font-size="6.6" fill="#5eb0ff" fill-opacity="0.5" xml:space="preserve">class UserProfile:</text><text x="82" y="297.6" font-family="ui-monospace,monospace" font-size="6.6" fill="#5eb0ff" fill-opacity="0.5" xml:space="preserve">  name = 'Alex'</text><text x="82" y="306.0" font-family="ui-monospace,monospace" font-size="6.6" fill="#5eb0ff" fill-opacity="0.5" xml:space="preserve">  language = 'English'</text><text x="82" y="314.4" font-family="ui-monospace,monospace" font-size="6.6" fill="#5eb0ff" fill-opacity="0.5" xml:space="preserve">class MedicalInfo:</text><text x="82" y="322.8" font-family="ui-monospace,monospace" font-size="6.6" fill="#5eb0ff" fill-opacity="0.5" xml:space="preserve">  allergies = [</text><text x="82" y="331.2" font-family="ui-monospace,monospace" font-size="6.6" fill="#5eb0ff" fill-opacity="0.5" xml:space="preserve">   Allergy('penicillin',</text><text x="82" y="339.6" font-family="ui-monospace,monospace" font-size="6.6" fill="#5eb0ff" fill-opacity="0.5" xml:space="preserve">    'severe')]</text><text x="82" y="348.0" font-family="ui-monospace,monospace" font-size="6.6" fill="#5eb0ff" fill-opacity="0.5" xml:space="preserve">  def check_drug_conflict(</text><text x="82" y="356.4" font-family="ui-monospace,monospace" font-size="6.6" fill="#5eb0ff" fill-opacity="0.5" xml:space="preserve">     self, meds):</text><text x="82" y="364.8" font-family="ui-monospace,monospace" font-size="6.6" fill="#5eb0ff" fill-opacity="0.5" xml:space="preserve">   return [m for m in meds</text><text x="82" y="373.2" font-family="ui-monospace,monospace" font-size="6.6" fill="#5eb0ff" fill-opacity="0.5" xml:space="preserve">    if m in self.allergies]</text><text x="82" y="381.6" font-family="ui-monospace,monospace" font-size="6.6" fill="#5eb0ff" fill-opacity="0.5" xml:space="preserve">class FoodPreference:</text><text x="82" y="390.0" font-family="ui-monospace,monospace" font-size="6.6" fill="#5eb0ff" fill-opacity="0.5" xml:space="preserve">  diet = 'vegetarian'</text><text x="82" y="398.4" font-family="ui-monospace,monospace" font-size="6.6" fill="#5eb0ff" fill-opacity="0.5" xml:space="preserve">  cuisines = ['Italian',</text><text x="82" y="406.8" font-family="ui-monospace,monospace" font-size="6.6" fill="#5eb0ff" fill-opacity="0.5" xml:space="preserve">   'Mexican']</text><text x="82" y="415.2" font-family="ui-monospace,monospace" font-size="6.6" fill="#5eb0ff" fill-opacity="0.5" xml:space="preserve">class TravelPreference:</text><text x="82" y="423.6" font-family="ui-monospace,monospace" font-size="6.6" fill="#5eb0ff" fill-opacity="0.5" xml:space="preserve">  home_airport = 'YYZ'</text><text x="82" y="432.0" font-family="ui-monospace,monospace" font-size="6.6" fill="#5eb0ff" fill-opacity="0.5" xml:space="preserve">  passport_expiry =</text><text x="82" y="440.4" font-family="ui-monospace,monospace" font-size="6.6" fill="#5eb0ff" fill-opacity="0.5" xml:space="preserve">   date(2027, 8, 15)</text><text x="82" y="448.8" font-family="ui-monospace,monospace" font-size="6.6" fill="#5eb0ff" fill-opacity="0.5" xml:space="preserve">log.append(fact)  # keep</text><text x="82" y="457.2" font-family="ui-monospace,monospace" font-size="6.6" fill="#5eb0ff" fill-opacity="0.5" xml:space="preserve">user = compile(log)</text><text x="82" y="465.6" font-family="ui-monospace,monospace" font-size="6.6" fill="#5eb0ff" fill-opacity="0.5" xml:space="preserve">user.on_change()  # rules</text><text x="82" y="474.0" font-family="ui-monospace,monospace" font-size="6.6" fill="#5eb0ff" fill-opacity="0.5" xml:space="preserve">user.total_spent('coffee')</text><text x="82" y="482.4" font-family="ui-monospace,monospace" font-size="6.6" fill="#5eb0ff" fill-opacity="0.5" xml:space="preserve">class UserProfile:</text><text x="82" y="490.8" font-family="ui-monospace,monospace" font-size="6.6" fill="#5eb0ff" fill-opacity="0.5" xml:space="preserve">  name = 'Alex'</text><text x="82" y="499.2" font-family="ui-monospace,monospace" font-size="6.6" fill="#5eb0ff" fill-opacity="0.5" xml:space="preserve">  language = 'English'</text><text x="82" y="507.6" font-family="ui-monospace,monospace" font-size="6.6" fill="#5eb0ff" fill-opacity="0.5" xml:space="preserve">class MedicalInfo:</text></g>
<circle cx="152" cy="122" r="30" fill="none" stroke="#5eb0ff" stroke-opacity="0.7"/>
<path d="
M120,170 C132,150 172,150 184,170 L178,305 C178,316 126,316 126,305 Z
M122,172 C98,180 92,242 88,312 C88,324 106,324 106,314 C110,250 118,198 130,186 Z
M182,172 C206,180 212,242 216,312 C216,324 198,324 198,314 C194,250 186,198 174,186 Z
M128,308 C124,360 122,420 120,476 C120,489 142,489 142,476 C146,420 152,360 154,312 Z
M176,308 C180,360 182,420 184,476 C184,489 162,489 162,476 C158,420 152,360 150,312 Z" fill="none" stroke="#5eb0ff" stroke-opacity="0.7" stroke-width="1.2"/>
<text x="152" y="516" text-anchor="middle" font-size="13" fill="#e6edf6">The user = one small <tspan fill="#5eb0ff" font-weight="700">typed program</tspan></text>
<text x="152" y="534" text-anchor="middle" font-family="ui-monospace,monospace" font-size="10.5" fill="#8ea0b8">state + rules, not a bag of facts</text>

<!-- Pipeline -->
<rect x="312" y="96" width="168" height="52" rx="10" fill="#131a26" stroke="#26324a"/>
    <text x="396" y="118" text-anchor="middle" font-family="system-ui,Segoe UI,sans-serif" font-size="14" font-weight="600" fill="#e6edf6">Conversation turns</text>
    <text x="396" y="135" text-anchor="middle" font-family="ui-monospace,monospace" font-size="10.5" fill="#8ea0b8">raw utterances</text>
<line x1="396" y1="148" x2="396" y2="185" stroke="#8ea0b8" stroke-width="1.6"/>
  <path d="M392,184 L396,191 L400,184 Z" fill="#8ea0b8"/>
<rect x="312" y="192" width="168" height="52" rx="10" fill="#131a26" stroke="#26324a"/>
    <text x="396" y="214" text-anchor="middle" font-family="system-ui,Segoe UI,sans-serif" font-size="14" font-weight="600" fill="#e6edf6">Append-only fact log</text>
    <text x="396" y="231" text-anchor="middle" font-family="ui-monospace,monospace" font-size="10.5" fill="#8ea0b8">capture everything</text>
<line x1="396" y1="244" x2="396" y2="293" stroke="#8ea0b8" stroke-width="1.6"/>
  <path d="M392,292 L396,299 L400,292 Z" fill="#8ea0b8"/><text x="405" y="275" font-family="ui-monospace,monospace" font-size="10.5" fill="#3ecf8e">compile ✓</text>
<rect x="312" y="300" width="168" height="52" rx="10" fill="#131a26" stroke="#5eb0ff" stroke-width="1.6"/>
    <text x="396" y="322" text-anchor="middle" font-family="system-ui,Segoe UI,sans-serif" font-size="14" font-weight="600" fill="#e6edf6">Typed User</text>
    <text x="396" y="339" text-anchor="middle" font-family="ui-monospace,monospace" font-size="10.5" fill="#8ea0b8">the executable user</text>

<!-- connectors body -> pipeline -> cards -->
<line x1="218" y1="230" x2="312" y2="218" stroke="#26324a" stroke-width="1.4"/>
<line x1="480" y1="326" x2="558" y2="150" stroke="#26324a" stroke-width="1.4"/>
<line x1="480" y1="326" x2="558" y2="330" stroke="#26324a" stroke-width="1.4"/>

<!-- Right: real classes -->
<rect x="560" y="90" width="480" height="84" rx="11" fill="#131a26" stroke="#ff6b6b" stroke-width="1.4"/><text x="1028" y="107" text-anchor="end" font-family="ui-monospace,monospace" font-size="10.5" fill="#8ea0b8">// medical + allergies</text><text x="574" y="116" font-family="ui-monospace,Menlo,Consolas,monospace" font-size="12.5" xml:space="preserve"><tspan fill="#c792ea">class</tspan><tspan fill="#cfe3ff"> </tspan><tspan fill="#cfe3ff">MedicalInfo</tspan><tspan fill="#cfe3ff">:</tspan></text><text x="574" y="133" font-family="ui-monospace,Menlo,Consolas,monospace" font-size="12.5" xml:space="preserve"><tspan fill="#cfe3ff">    </tspan><tspan fill="#cfe3ff">allergies</tspan><tspan fill="#cfe3ff"> </tspan><tspan fill="#cfe3ff">=</tspan><tspan fill="#cfe3ff"> </tspan><tspan fill="#cfe3ff">[</tspan><tspan fill="#c792ea">Allergy</tspan><tspan fill="#cfe3ff">('</tspan><tspan fill="#cfe3ff">penicillin</tspan><tspan fill="#86e1a0">', '</tspan><tspan fill="#cfe3ff">severe</tspan><tspan fill="#86e1a0">')]</tspan></text><text x="574" y="150" font-family="ui-monospace,Menlo,Consolas,monospace" font-size="12.5" xml:space="preserve"><tspan fill="#cfe3ff">    </tspan><tspan fill="#c792ea">def</tspan><tspan fill="#cfe3ff"> </tspan><tspan fill="#cfe3ff">check_drug_conflict</tspan><tspan fill="#cfe3ff">(</tspan><tspan fill="#c792ea">self</tspan><tspan fill="#cfe3ff">,</tspan><tspan fill="#cfe3ff"> </tspan><tspan fill="#cfe3ff">meds</tspan><tspan fill="#cfe3ff">):</tspan></text><text x="574" y="167" font-family="ui-monospace,Menlo,Consolas,monospace" font-size="12.5" xml:space="preserve"><tspan fill="#cfe3ff">        </tspan><tspan fill="#c792ea">return</tspan><tspan fill="#cfe3ff"> </tspan><tspan fill="#cfe3ff">[</tspan><tspan fill="#cfe3ff">m</tspan><tspan fill="#cfe3ff"> </tspan><tspan fill="#c792ea">for</tspan><tspan fill="#cfe3ff"> </tspan><tspan fill="#cfe3ff">m</tspan><tspan fill="#cfe3ff"> </tspan><tspan fill="#c792ea">in</tspan><tspan fill="#cfe3ff"> </tspan><tspan fill="#cfe3ff">meds</tspan><tspan fill="#cfe3ff"> </tspan><tspan fill="#c792ea">if</tspan><tspan fill="#cfe3ff"> </tspan><tspan fill="#cfe3ff">m</tspan><tspan fill="#cfe3ff"> </tspan><tspan fill="#c792ea">in</tspan><tspan fill="#cfe3ff"> </tspan><tspan fill="#c792ea">self</tspan><tspan fill="#cfe3ff">.</tspan><tspan fill="#cfe3ff">allergies</tspan><tspan fill="#cfe3ff">]</tspan></text>
<rect x="560" y="182" width="480" height="34" rx="9" fill="#2a1010" stroke="#6a2020"/>
<text x="574" y="204" font-size="12.5" fill="#ff6b6b" font-weight="700">⚠ DRUG–ALLERGY CONFLICT<tspan fill="#e6edf6" font-weight="400"> — amoxicillin ∈ penicillin allergens, fired on compile</tspan></text>
<rect x="560" y="226" width="480" height="67" rx="11" fill="#131a26" stroke="#3ecf8e" stroke-width="1.4"/><text x="1028" y="243" text-anchor="end" font-family="ui-monospace,monospace" font-size="10.5" fill="#8ea0b8">// food</text><text x="574" y="252" font-family="ui-monospace,Menlo,Consolas,monospace" font-size="12.5" xml:space="preserve"><tspan fill="#c792ea">class</tspan><tspan fill="#cfe3ff"> </tspan><tspan fill="#cfe3ff">FoodPreference</tspan><tspan fill="#cfe3ff">:</tspan></text><text x="574" y="269" font-family="ui-monospace,Menlo,Consolas,monospace" font-size="12.5" xml:space="preserve"><tspan fill="#cfe3ff">    </tspan><tspan fill="#cfe3ff">diet_type</tspan><tspan fill="#cfe3ff"> </tspan><tspan fill="#cfe3ff">=</tspan><tspan fill="#cfe3ff"> </tspan><tspan fill="#86e1a0">'vegetarian'</tspan></text><text x="574" y="286" font-family="ui-monospace,Menlo,Consolas,monospace" font-size="12.5" xml:space="preserve"><tspan fill="#cfe3ff">    </tspan><tspan fill="#cfe3ff">cuisines</tspan><tspan fill="#cfe3ff">  </tspan><tspan fill="#cfe3ff">=</tspan><tspan fill="#cfe3ff"> </tspan><tspan fill="#cfe3ff">['</tspan><tspan fill="#cfe3ff">Italian</tspan><tspan fill="#86e1a0">', '</tspan><tspan fill="#cfe3ff">Mexican</tspan><tspan fill="#86e1a0">']</tspan></text>
<rect x="560" y="305" width="480" height="84" rx="11" fill="#131a26" stroke="#5eb0ff" stroke-width="1.4"/><text x="1028" y="322" text-anchor="end" font-family="ui-monospace,monospace" font-size="10.5" fill="#8ea0b8">// travel</text><text x="574" y="331" font-family="ui-monospace,Menlo,Consolas,monospace" font-size="12.5" xml:space="preserve"><tspan fill="#c792ea">class</tspan><tspan fill="#cfe3ff"> </tspan><tspan fill="#cfe3ff">TravelPreference</tspan><tspan fill="#cfe3ff">:</tspan></text><text x="574" y="348" font-family="ui-monospace,Menlo,Consolas,monospace" font-size="12.5" xml:space="preserve"><tspan fill="#cfe3ff">    </tspan><tspan fill="#cfe3ff">home_airport</tspan><tspan fill="#cfe3ff">    </tspan><tspan fill="#cfe3ff">=</tspan><tspan fill="#cfe3ff"> </tspan><tspan fill="#86e1a0">'YYZ'</tspan></text><text x="574" y="365" font-family="ui-monospace,Menlo,Consolas,monospace" font-size="12.5" xml:space="preserve"><tspan fill="#cfe3ff">    </tspan><tspan fill="#cfe3ff">passport_expiry</tspan><tspan fill="#cfe3ff"> </tspan><tspan fill="#cfe3ff">=</tspan><tspan fill="#cfe3ff"> </tspan><tspan fill="#c792ea">date</tspan><tspan fill="#cfe3ff">(2027,</tspan><tspan fill="#cfe3ff"> </tspan><tspan fill="#cfe3ff">8,</tspan><tspan fill="#cfe3ff"> </tspan><tspan fill="#cfe3ff">15)</tspan></text><text x="574" y="382" font-family="ui-monospace,Menlo,Consolas,monospace" font-size="12.5" xml:space="preserve"><tspan fill="#cfe3ff">    </tspan><tspan fill="#c792ea">def</tspan><tspan fill="#cfe3ff"> </tspan><tspan fill="#cfe3ff">is_international</tspan><tspan fill="#cfe3ff">(</tspan><tspan fill="#c792ea">self</tspan><tspan fill="#cfe3ff">,</tspan><tspan fill="#cfe3ff"> </tspan><tspan fill="#cfe3ff">dest</tspan><tspan fill="#cfe3ff">):</tspan><tspan fill="#cfe3ff"> </tspan><tspan fill="#cfe3ff">...</tspan></text>

<!-- Footer comparison -->
<rect x="40" y="556" width="486" height="60" rx="11" fill="#0f2a1f" stroke="#1f5c40"/>
<text x="58" y="580" font-size="13" font-weight="700" fill="#3ecf8e">▶ User as Code (executed)</text>
<text x="58" y="600" font-family="ui-monospace,monospace" font-size="11.5" fill="#e6edf6">1-line computation · ~99% accuracy · proactive safety alerts</text>
<text x="540" y="592" text-anchor="middle" font-size="13" font-style="italic" fill="#8ea0b8">vs</text>
<rect x="560" y="556" width="480" height="60" rx="11" fill="#2a2410" stroke="#6a5a1f"/>
<text x="578" y="580" font-size="13" font-weight="700" fill="#f5c451">⌕ Retrieval / RAG (bag of facts)</text>
<text x="578" y="600" font-family="ui-monospace,monospace" font-size="11.5" fill="#e6edf6">text chunks · 6–43% accuracy · query-driven, can't compute</text>
</svg>